<mxfile host="app.diagrams.net" modified="2024-07-10T07:30:55.846Z" agent="Mozilla/5.0 (Macintosh; Intel Mac OS X 10_15_7) AppleWebKit/537.36 (KHTML, like Gecko) Chrome/126.0.0.0 Safari/537.36" etag="6FHmA6Hmc1VyVlAEDxW1" version="24.6.4" type="device" pages="2">
  <diagram id="GWFfLCvhLpJTNQ_UYMva" name="home">
    <mxGraphModel dx="1114" dy="727" grid="1" gridSize="10" guides="1" tooltips="1" connect="1" arrows="1" fold="1" page="1" pageScale="1" pageWidth="827" pageHeight="1169" math="0" shadow="0">
      <root>
        <mxCell id="0" />
        <mxCell id="1" parent="0" />
        <mxCell id="f6s3JwkN0MdlUgzI1syV-1" value="Home" style="strokeWidth=1;shadow=0;dashed=0;align=center;html=1;shape=mxgraph.mockup.containers.window;align=left;verticalAlign=top;spacingLeft=8;strokeColor2=#008cff;strokeColor3=#c4c4c4;fontColor=#666666;mainText=;fontSize=17;labelBackgroundColor=none;whiteSpace=wrap;" vertex="1" parent="1">
          <mxGeometry x="9" y="20" width="810" height="590" as="geometry" />
        </mxCell>
        <mxCell id="enZfVMpQGpxIZAzEN-10-1" value="" style="rounded=0;whiteSpace=wrap;html=1;" vertex="1" parent="1">
          <mxGeometry x="9" y="50" width="811" height="40" as="geometry" />
        </mxCell>
        <mxCell id="enZfVMpQGpxIZAzEN-10-5" value="Register" style="rounded=1;fillColor=#0057D8;strokeColor=none;html=1;whiteSpace=wrap;fontColor=#ffffff;align=center;verticalAlign=middle;fontStyle=0;fontSize=12;sketch=0;" vertex="1" parent="1">
          <mxGeometry x="730" y="53.5" width="86" height="33" as="geometry" />
        </mxCell>
        <mxCell id="enZfVMpQGpxIZAzEN-10-6" value="Sign In" style="fillColor=none;strokeColor=none;html=1;fontColor=#0057D8;align=center;verticalAlign=middle;fontStyle=0;fontSize=12" vertex="1" parent="1">
          <mxGeometry x="644" y="53.5" width="86" height="33" as="geometry" />
        </mxCell>
        <mxCell id="enZfVMpQGpxIZAzEN-10-7" value="Movie Reservation App" style="text;html=1;align=center;verticalAlign=middle;whiteSpace=wrap;rounded=0;" vertex="1" parent="1">
          <mxGeometry x="20" y="53.5" width="131" height="30" as="geometry" />
        </mxCell>
        <mxCell id="enZfVMpQGpxIZAzEN-10-10" value="title" style="html=1;shadow=0;dashed=0;shape=mxgraph.bootstrap.rrect;rSize=5;strokeColor=#DFDFDF;html=1;whiteSpace=wrap;fillColor=#ffffff;fontColor=#000000;verticalAlign=bottom;align=left;spacing=20;fontSize=14;" vertex="1" parent="1">
          <mxGeometry x="30" y="100" width="190" height="230" as="geometry" />
        </mxCell>
        <mxCell id="enZfVMpQGpxIZAzEN-10-11" value="Image cap" style="html=1;shadow=0;dashed=0;shape=mxgraph.bootstrap.topButton;rSize=5;perimeter=none;whiteSpace=wrap;fillColor=#868E96;strokeColor=#DFDFDF;fontColor=#DEE2E6;resizeWidth=1;fontSize=18;" vertex="1" parent="enZfVMpQGpxIZAzEN-10-10">
          <mxGeometry width="190" height="180" relative="1" as="geometry" />
        </mxCell>
        <mxCell id="enZfVMpQGpxIZAzEN-10-12" value="title" style="html=1;shadow=0;dashed=0;shape=mxgraph.bootstrap.rrect;rSize=5;strokeColor=#DFDFDF;html=1;whiteSpace=wrap;fillColor=#ffffff;fontColor=#000000;verticalAlign=bottom;align=left;spacing=20;fontSize=14;" vertex="1" parent="1">
          <mxGeometry x="319" y="100" width="190" height="230" as="geometry" />
        </mxCell>
        <mxCell id="enZfVMpQGpxIZAzEN-10-13" value="Image cap" style="html=1;shadow=0;dashed=0;shape=mxgraph.bootstrap.topButton;rSize=5;perimeter=none;whiteSpace=wrap;fillColor=#868E96;strokeColor=#DFDFDF;fontColor=#DEE2E6;resizeWidth=1;fontSize=18;" vertex="1" parent="enZfVMpQGpxIZAzEN-10-12">
          <mxGeometry width="190" height="180" relative="1" as="geometry" />
        </mxCell>
        <mxCell id="enZfVMpQGpxIZAzEN-10-14" value="title" style="html=1;shadow=0;dashed=0;shape=mxgraph.bootstrap.rrect;rSize=5;strokeColor=#DFDFDF;html=1;whiteSpace=wrap;fillColor=#ffffff;fontColor=#000000;verticalAlign=bottom;align=left;spacing=20;fontSize=14;" vertex="1" parent="1">
          <mxGeometry x="610" y="100" width="190" height="230" as="geometry" />
        </mxCell>
        <mxCell id="enZfVMpQGpxIZAzEN-10-15" value="Image cap" style="html=1;shadow=0;dashed=0;shape=mxgraph.bootstrap.topButton;rSize=5;perimeter=none;whiteSpace=wrap;fillColor=#868E96;strokeColor=#DFDFDF;fontColor=#DEE2E6;resizeWidth=1;fontSize=18;" vertex="1" parent="enZfVMpQGpxIZAzEN-10-14">
          <mxGeometry width="190" height="180" relative="1" as="geometry" />
        </mxCell>
        <mxCell id="enZfVMpQGpxIZAzEN-10-16" value="title" style="html=1;shadow=0;dashed=0;shape=mxgraph.bootstrap.rrect;rSize=5;strokeColor=#DFDFDF;html=1;whiteSpace=wrap;fillColor=#ffffff;fontColor=#000000;verticalAlign=bottom;align=left;spacing=20;fontSize=14;" vertex="1" parent="1">
          <mxGeometry x="30" y="360" width="190" height="230" as="geometry" />
        </mxCell>
        <mxCell id="enZfVMpQGpxIZAzEN-10-17" value="Image cap" style="html=1;shadow=0;dashed=0;shape=mxgraph.bootstrap.topButton;rSize=5;perimeter=none;whiteSpace=wrap;fillColor=#868E96;strokeColor=#DFDFDF;fontColor=#DEE2E6;resizeWidth=1;fontSize=18;" vertex="1" parent="enZfVMpQGpxIZAzEN-10-16">
          <mxGeometry width="190" height="180" relative="1" as="geometry" />
        </mxCell>
        <mxCell id="enZfVMpQGpxIZAzEN-10-18" value="title" style="html=1;shadow=0;dashed=0;shape=mxgraph.bootstrap.rrect;rSize=5;strokeColor=#DFDFDF;html=1;whiteSpace=wrap;fillColor=#ffffff;fontColor=#000000;verticalAlign=bottom;align=left;spacing=20;fontSize=14;" vertex="1" parent="1">
          <mxGeometry x="319" y="360" width="190" height="230" as="geometry" />
        </mxCell>
        <mxCell id="enZfVMpQGpxIZAzEN-10-19" value="Image cap" style="html=1;shadow=0;dashed=0;shape=mxgraph.bootstrap.topButton;rSize=5;perimeter=none;whiteSpace=wrap;fillColor=#868E96;strokeColor=#DFDFDF;fontColor=#DEE2E6;resizeWidth=1;fontSize=18;" vertex="1" parent="enZfVMpQGpxIZAzEN-10-18">
          <mxGeometry width="190" height="180" relative="1" as="geometry" />
        </mxCell>
        <mxCell id="enZfVMpQGpxIZAzEN-10-20" value="title" style="html=1;shadow=0;dashed=0;shape=mxgraph.bootstrap.rrect;rSize=5;strokeColor=#DFDFDF;html=1;whiteSpace=wrap;fillColor=#ffffff;fontColor=#000000;verticalAlign=bottom;align=left;spacing=20;fontSize=14;" vertex="1" parent="1">
          <mxGeometry x="610" y="360" width="190" height="230" as="geometry" />
        </mxCell>
        <mxCell id="enZfVMpQGpxIZAzEN-10-21" value="Image cap" style="html=1;shadow=0;dashed=0;shape=mxgraph.bootstrap.topButton;rSize=5;perimeter=none;whiteSpace=wrap;fillColor=#868E96;strokeColor=#DFDFDF;fontColor=#DEE2E6;resizeWidth=1;fontSize=18;" vertex="1" parent="enZfVMpQGpxIZAzEN-10-20">
          <mxGeometry width="190" height="180" relative="1" as="geometry" />
        </mxCell>
      </root>
    </mxGraphModel>
  </diagram>
  <diagram id="51eIaUIiA1ZKY0hffxHQ" name="movie-details">
    <mxGraphModel dx="847" dy="757" grid="1" gridSize="10" guides="1" tooltips="1" connect="1" arrows="1" fold="1" page="1" pageScale="1" pageWidth="827" pageHeight="1169" math="0" shadow="0">
      <root>
        <mxCell id="0" />
        <mxCell id="1" parent="0" />
        <mxCell id="isGys2z--TmY4RxQtWzl-1" value="Home" style="strokeWidth=1;shadow=0;dashed=0;align=center;html=1;shape=mxgraph.mockup.containers.window;align=left;verticalAlign=top;spacingLeft=8;strokeColor2=#008cff;strokeColor3=#c4c4c4;fontColor=#666666;mainText=;fontSize=17;labelBackgroundColor=none;whiteSpace=wrap;" parent="1" vertex="1">
          <mxGeometry x="9" y="20" width="810" height="590" as="geometry" />
        </mxCell>
        <mxCell id="isGys2z--TmY4RxQtWzl-2" value="" style="rounded=0;whiteSpace=wrap;html=1;" parent="1" vertex="1">
          <mxGeometry x="9" y="50" width="811" height="40" as="geometry" />
        </mxCell>
        <mxCell id="isGys2z--TmY4RxQtWzl-3" value="Register" style="rounded=1;fillColor=#0057D8;strokeColor=none;html=1;whiteSpace=wrap;fontColor=#ffffff;align=center;verticalAlign=middle;fontStyle=0;fontSize=12;sketch=0;" parent="1" vertex="1">
          <mxGeometry x="730" y="53.5" width="86" height="33" as="geometry" />
        </mxCell>
        <mxCell id="isGys2z--TmY4RxQtWzl-4" value="Sign In" style="fillColor=none;strokeColor=none;html=1;fontColor=#0057D8;align=center;verticalAlign=middle;fontStyle=0;fontSize=12" parent="1" vertex="1">
          <mxGeometry x="644" y="53.5" width="86" height="33" as="geometry" />
        </mxCell>
        <mxCell id="isGys2z--TmY4RxQtWzl-5" value="Movie Reservation App" style="text;html=1;align=center;verticalAlign=middle;whiteSpace=wrap;rounded=0;" parent="1" vertex="1">
          <mxGeometry x="20" y="53.5" width="131" height="30" as="geometry" />
        </mxCell>
        <mxCell id="j7OEz0O2rtIiI6W0pvnm-3" value="" style="shape=image;html=1;verticalLabelPosition=bottom;verticalAlign=top;imageAspect=1;aspect=fixed;image=img/clipart/Gear_128x128.png" parent="1" vertex="1">
          <mxGeometry x="30" y="110" width="400.65" height="470" as="geometry" />
        </mxCell>
        <mxCell id="j7OEz0O2rtIiI6W0pvnm-4" value="&lt;h1 style=&quot;margin-top: 0px;&quot;&gt;Heading&lt;/h1&gt;&lt;p&gt;Lorem ipsum dolor sit amet, consectetur adipisicing elit, sed do eiusmod tempor incididunt ut labore et dolore magna aliqua.&lt;/p&gt;&lt;p&gt;&lt;br&gt;&lt;/p&gt;&lt;p&gt;director&lt;/p&gt;&lt;p&gt;&lt;br&gt;&lt;/p&gt;&lt;p&gt;genre&lt;/p&gt;&lt;p&gt;&lt;br&gt;&lt;/p&gt;&lt;p&gt;&lt;br&gt;&lt;/p&gt;" style="text;html=1;whiteSpace=wrap;overflow=hidden;rounded=0;" parent="1" vertex="1">
          <mxGeometry x="480" y="110" width="330" height="460" as="geometry" />
        </mxCell>
        <mxCell id="j7OEz0O2rtIiI6W0pvnm-5" value="Buy Ticket" style="rounded=1;fillColor=#0057D8;strokeColor=none;html=1;whiteSpace=wrap;fontColor=#ffffff;align=center;verticalAlign=middle;fontStyle=0;fontSize=12;sketch=0;" parent="1" vertex="1">
          <mxGeometry x="720" y="537" width="86" height="33" as="geometry" />
        </mxCell>
      </root>
    </mxGraphModel>
  </diagram>
</mxfile>
